<svg width="250" height="253" viewBox="0 0 250 253" fill="none" xmlns="http://www.w3.org/2000/svg">
<path d="M91.4245 219.459C91.4278 220.591 91.6609 221.711 92.1095 222.748C92.558 223.784 93.2122 224.716 94.0313 225.485C94.8503 226.253 95.8167 226.842 96.87 227.214C97.9232 227.587 99.0408 227.735 100.153 227.649C142.424 224.578 182.348 194.217 195.094 146.796C195.764 144.068 197.781 142.701 200.467 142.701C201.844 142.757 203.144 143.362 204.085 144.384C205.025 145.407 205.531 146.765 205.493 148.163C205.493 158.737 192.101 186.371 172.95 202.407C171.974 203.24 171.196 204.287 170.674 205.468C170.151 206.649 169.898 207.935 169.933 209.229C169.953 210.282 170.177 211.32 170.592 212.284C171.007 213.249 171.606 214.12 172.354 214.849C173.102 215.578 173.985 216.15 174.951 216.532C175.917 216.914 176.948 217.099 177.984 217.075C179.662 217.075 182.348 216.052 185.704 212.98C199.096 200.695 224.62 166.239 224.62 128.368C224.62 72.8449 182.325 25 123.297 25C70.6274 25 25 68.6699 25 119.162C25 152.594 51.1696 177.837 85.721 177.837C112.229 177.837 136.721 158.737 143.433 132.463C144.102 129.736 146.111 128.368 148.797 128.368C150.175 128.424 151.476 129.029 152.418 130.051C153.36 131.074 153.868 132.431 153.831 133.831C153.831 145.772 131.687 187.418 86.7294 187.418C75.9921 187.418 62.5764 184.347 53.1784 178.884C51.9203 178.265 50.5499 177.917 49.1529 177.861C48.0833 177.819 47.0167 178.002 46.0203 178.399C45.0239 178.796 44.1191 179.398 43.363 180.168C42.6068 180.937 42.0156 181.857 41.6265 182.869C41.2374 183.882 41.0588 184.965 41.1019 186.051C41.1454 187.442 41.5379 188.799 42.2424 189.992C42.9468 191.186 43.9399 192.178 45.1274 192.873C57.5426 200.071 72.3054 203.791 87.399 203.791C124.975 203.791 159.196 177.861 169.264 139.653C169.933 136.926 171.95 135.558 174.628 135.558C176.006 135.615 177.307 136.219 178.249 137.242C179.191 138.264 179.698 139.622 179.662 141.021C179.662 156.713 152.153 207.206 99.1446 211.301C97.0936 211.455 95.1711 212.374 93.7463 213.879C92.3214 215.385 91.4946 217.372 91.4245 219.459V219.459Z" fill="#4F43DD"/>
<path d="M143.974 88.7857C151.21 88.7309 158.312 90.7611 164.456 94.6404C165.077 91.1899 165.42 87.6938 165.48 84.1868C165.48 67.9906 153.317 53.4819 138.507 53.4819C126.99 53.4819 119.79 63.1677 119.79 75.1329C119.735 81.5967 121.972 87.8649 126.092 92.7928C131.674 90.0906 137.791 88.72 143.974 88.7857V88.7857Z" fill="white"/>
<path d="M144.104 68.6771C151.657 68.8913 157.608 75.2787 157.397 82.9437C157.321 85.6969 156.459 88.2394 155.038 90.3588C151.463 89.293 147.737 88.7571 143.975 88.7855C140.054 88.7438 136.16 89.2798 132.412 90.3666C130.847 88.0364 129.963 85.2028 130.046 82.1684C130.257 74.5033 136.551 68.4632 144.104 68.6771Z" fill="black"/>
</svg>
